<svg width="499" height="499" viewBox="0 0 499 499" fill="none" xmlns="http://www.w3.org/2000/svg">
<path d="M369.073 220.785C366.655 214.727 359.4 212.305 353.354 214.727L318.289 231.687L292.897 206.248L267.505 180.808L284.433 145.677C286.851 139.62 284.433 132.351 278.387 129.928C272.342 127.506 265.087 129.928 262.669 135.986L244.531 173.539L167.146 185.654C162.309 186.865 158.682 190.499 157.473 195.345L128.453 335.869C127.244 339.503 128.453 344.349 132.081 346.772L152.636 367.366C155.055 369.789 158.682 371 161.1 371H163.519L303.779 341.926C308.616 340.715 312.243 337.08 313.453 332.235L325.544 254.704L363.028 236.533C369.073 234.11 371.492 226.842 369.073 220.785V220.785ZM290.479 320.121L171.983 344.349L216.721 299.527C234.858 308.006 256.623 300.738 265.087 282.567C273.551 264.395 266.296 242.59 248.159 234.11C234.858 228.053 217.93 230.476 207.048 241.379C196.166 252.281 193.747 269.241 199.793 282.567L155.055 327.389L179.238 208.67L249.368 196.556L275.969 223.207L302.57 249.859L290.479 320.121V320.121ZM220.348 266.818C220.348 263.184 221.558 260.761 223.976 258.338C228.812 253.493 236.067 253.493 240.904 258.338C245.741 263.184 245.741 270.453 240.904 275.298C236.067 280.144 228.812 280.144 223.976 275.298C221.558 272.875 220.348 269.241 220.348 266.818V266.818Z" fill="#947151"/>
</svg>
