<svg width="303" height="80" viewBox="0 0 303 80" fill="none" xmlns="http://www.w3.org/2000/svg">
<rect width="303" height="80" rx="40" fill="#740E45"/>
<path d="M127.582 50.364C126.527 50.364 125.51 50.2007 124.53 49.874C123.55 49.538 122.691 49.062 121.954 48.446C121.226 47.83 120.708 47.0973 120.4 46.248L122.598 45.422C122.785 45.9447 123.13 46.402 123.634 46.794C124.147 47.1767 124.749 47.4753 125.44 47.69C126.131 47.9047 126.845 48.012 127.582 48.012C128.422 48.012 129.201 47.8767 129.92 47.606C130.648 47.326 131.236 46.9387 131.684 46.444C132.132 45.9493 132.356 45.3707 132.356 44.708C132.356 44.0267 132.123 43.4713 131.656 43.042C131.189 42.6033 130.592 42.258 129.864 42.006C129.136 41.7447 128.375 41.544 127.582 41.404C126.229 41.18 125.015 40.8627 123.942 40.452C122.878 40.032 122.033 39.4487 121.408 38.702C120.792 37.9553 120.484 36.9707 120.484 35.748C120.484 34.6093 120.811 33.6153 121.464 32.766C122.127 31.9167 122.999 31.2587 124.082 30.792C125.165 30.3253 126.331 30.092 127.582 30.092C128.618 30.092 129.621 30.2553 130.592 30.582C131.572 30.8993 132.435 31.366 133.182 31.982C133.929 32.598 134.465 33.3493 134.792 34.236L132.566 35.048C132.379 34.516 132.029 34.0587 131.516 33.676C131.012 33.284 130.415 32.9853 129.724 32.78C129.043 32.5653 128.329 32.458 127.582 32.458C126.751 32.4487 125.977 32.584 125.258 32.864C124.539 33.144 123.956 33.5313 123.508 34.026C123.06 34.5207 122.836 35.0947 122.836 35.748C122.836 36.532 123.041 37.134 123.452 37.554C123.872 37.9647 124.441 38.2727 125.16 38.478C125.879 38.6833 126.686 38.8653 127.582 39.024C128.851 39.2387 130.027 39.5793 131.11 40.046C132.193 40.5033 133.061 41.1147 133.714 41.88C134.377 42.6453 134.708 43.588 134.708 44.708C134.708 45.8467 134.377 46.8407 133.714 47.69C133.061 48.5393 132.193 49.1973 131.11 49.664C130.027 50.1307 128.851 50.364 127.582 50.364ZM143.993 50.364C142.705 50.364 141.529 50.0327 140.465 49.37C139.41 48.7073 138.566 47.8207 137.931 46.71C137.306 45.59 136.993 44.3533 136.993 43C136.993 41.9733 137.175 41.0167 137.539 40.13C137.903 39.234 138.402 38.45 139.037 37.778C139.681 37.0967 140.428 36.5647 141.277 36.182C142.126 35.7993 143.032 35.608 143.993 35.608C145.048 35.608 146.014 35.8227 146.891 36.252C147.778 36.672 148.534 37.26 149.159 38.016C149.794 38.772 150.265 39.6493 150.573 40.648C150.89 41.6467 151.007 42.7153 150.923 43.854H139.499C139.611 44.6473 139.872 45.3567 140.283 45.982C140.694 46.598 141.216 47.088 141.851 47.452C142.495 47.816 143.209 48.0027 143.993 48.012C144.833 48.012 145.594 47.7973 146.275 47.368C146.956 46.9293 147.507 46.332 147.927 45.576L150.321 46.136C149.761 47.3773 148.916 48.3947 147.787 49.188C146.658 49.972 145.393 50.364 143.993 50.364ZM139.429 42.006H148.557C148.482 41.222 148.23 40.508 147.801 39.864C147.372 39.2107 146.826 38.688 146.163 38.296C145.5 37.904 144.777 37.708 143.993 37.708C143.209 37.708 142.49 37.8993 141.837 38.282C141.184 38.6647 140.642 39.1827 140.213 39.836C139.793 40.48 139.532 41.2033 139.429 42.006ZM166.082 42.552V50H163.73V42.608C163.73 41.74 163.548 40.9513 163.184 40.242C162.82 39.5233 162.325 38.954 161.7 38.534C161.074 38.1047 160.37 37.89 159.586 37.89C158.811 37.89 158.12 38.1047 157.514 38.534C156.916 38.954 156.445 39.5233 156.1 40.242C155.754 40.9513 155.582 41.74 155.582 42.608V50H153.23V36H155.582V38.156C156.086 37.3627 156.706 36.742 157.444 36.294C158.19 35.8367 159.021 35.608 159.936 35.608C161.149 35.608 162.213 35.9253 163.128 36.56C164.052 37.1947 164.77 38.0393 165.284 39.094C165.806 40.1393 166.072 41.292 166.082 42.552ZM180.21 29H182.562V50H180.21V47.62C179.734 48.4413 179.095 49.104 178.292 49.608C177.489 50.112 176.547 50.364 175.464 50.364C174.447 50.364 173.495 50.1727 172.608 49.79C171.721 49.4073 170.937 48.88 170.256 48.208C169.584 47.5267 169.057 46.7427 168.674 45.856C168.291 44.9693 168.1 44.0173 168.1 43C168.1 41.9827 168.291 41.0307 168.674 40.144C169.057 39.248 169.584 38.464 170.256 37.792C170.937 37.1107 171.721 36.5787 172.608 36.196C173.495 35.8133 174.447 35.622 175.464 35.622C176.547 35.622 177.489 35.874 178.292 36.378C179.095 36.882 179.734 37.5447 180.21 38.366V29ZM175.492 48.082C176.416 48.082 177.214 47.858 177.886 47.41C178.567 46.9527 179.09 46.3367 179.454 45.562C179.827 44.7873 180.014 43.9333 180.014 43C180.014 42.048 179.827 41.1893 179.454 40.424C179.081 39.6493 178.553 39.038 177.872 38.59C177.2 38.1327 176.407 37.904 175.492 37.904C174.568 37.904 173.728 38.1327 172.972 38.59C172.225 39.0473 171.628 39.6633 171.18 40.438C170.732 41.2033 170.508 42.0573 170.508 43C170.508 43.9427 170.737 44.8013 171.194 45.576C171.651 46.3413 172.258 46.9527 173.014 47.41C173.77 47.858 174.596 48.082 175.492 48.082Z" fill="white"/>
</svg>
