<svg width="311" height="88" viewBox="0 0 311 88" fill="none" xmlns="http://www.w3.org/2000/svg">
<g filter="url(#filter0_d_18_39)">
<path d="M33.68 49V29.4H36.032V46.648H44.81V49H33.68ZM52.8916 49.364C51.6036 49.364 50.4276 49.0327 49.3636 48.37C48.3089 47.7073 47.4642 46.8207 46.8296 45.71C46.2042 44.59 45.8916 43.3533 45.8916 42C45.8916 40.9733 46.0736 40.0167 46.4376 39.13C46.8016 38.234 47.3009 37.45 47.9356 36.778C48.5796 36.0967 49.3262 35.5647 50.1756 35.182C51.0249 34.7993 51.9302 34.608 52.8916 34.608C53.9462 34.608 54.9122 34.8227 55.7896 35.252C56.6762 35.672 57.4322 36.26 58.0576 37.016C58.6922 37.772 59.1636 38.6493 59.4716 39.648C59.7889 40.6467 59.9056 41.7153 59.8216 42.854H48.3976C48.5096 43.6473 48.7709 44.3567 49.1816 44.982C49.5922 45.598 50.1149 46.088 50.7496 46.452C51.3936 46.816 52.1076 47.0027 52.8916 47.012C53.7316 47.012 54.4922 46.7973 55.1736 46.368C55.8549 45.9293 56.4056 45.332 56.8256 44.576L59.2196 45.136C58.6596 46.3773 57.8149 47.3947 56.6856 48.188C55.5562 48.972 54.2916 49.364 52.8916 49.364ZM48.3276 41.006H57.4556C57.3809 40.222 57.1289 39.508 56.6996 38.864C56.2702 38.2107 55.7242 37.688 55.0616 37.296C54.3989 36.904 53.6756 36.708 52.8916 36.708C52.1076 36.708 51.3889 36.8993 50.7356 37.282C50.0822 37.6647 49.5409 38.1827 49.1116 38.836C48.6916 39.48 48.4302 40.2033 48.3276 41.006ZM69.4687 37.352H66.2907L66.2767 49H63.9247L63.9387 37.352H61.5307V35H63.9387L63.9247 30.604H66.2767L66.2907 35H69.4687V37.352ZM71.0584 36.708L71.9264 29.4H74.2784L72.6264 36.708H71.0584ZM81.1634 49.266C80.4074 49.238 79.6701 49.098 78.9514 48.846C78.2421 48.5847 77.6168 48.2347 77.0754 47.796C76.5434 47.348 76.1561 46.8347 75.9134 46.256L77.9294 45.388C78.0694 45.7053 78.3214 46.004 78.6854 46.284C79.0494 46.564 79.4694 46.788 79.9454 46.956C80.4214 47.124 80.9021 47.208 81.3874 47.208C81.9008 47.208 82.3814 47.1287 82.8294 46.97C83.2774 46.8113 83.6414 46.578 83.9214 46.27C84.2108 45.9527 84.3554 45.5747 84.3554 45.136C84.3554 44.6693 84.1968 44.3053 83.8794 44.044C83.5714 43.7733 83.1794 43.5633 82.7034 43.414C82.2368 43.2553 81.7608 43.106 81.2754 42.966C80.3141 42.7233 79.4554 42.434 78.6994 42.098C77.9434 41.7527 77.3461 41.3187 76.9074 40.796C76.4781 40.264 76.2634 39.5873 76.2634 38.766C76.2634 37.898 76.5014 37.1467 76.9774 36.512C77.4628 35.8773 78.0974 35.3873 78.8814 35.042C79.6654 34.6967 80.5054 34.524 81.4014 34.524C82.5308 34.524 83.5621 34.7667 84.4954 35.252C85.4288 35.7373 86.1241 36.3953 86.5814 37.226L84.6914 38.332C84.5328 37.996 84.2901 37.702 83.9634 37.45C83.6368 37.1887 83.2634 36.9833 82.8434 36.834C82.4234 36.6847 81.9941 36.6053 81.5554 36.596C81.0141 36.5773 80.5054 36.6473 80.0294 36.806C79.5628 36.9647 79.1848 37.2073 78.8954 37.534C78.6154 37.8513 78.4754 38.248 78.4754 38.724C78.4754 39.1907 78.6248 39.5453 78.9234 39.788C79.2314 40.0307 79.6281 40.2267 80.1134 40.376C80.6081 40.516 81.1448 40.6793 81.7234 40.866C82.5728 41.1367 83.3661 41.4493 84.1034 41.804C84.8408 42.1587 85.4334 42.602 85.8814 43.134C86.3388 43.666 86.5628 44.324 86.5534 45.108C86.5534 45.9667 86.2968 46.718 85.7834 47.362C85.2701 47.9967 84.6028 48.482 83.7814 48.818C82.9694 49.154 82.0968 49.3033 81.1634 49.266ZM102.469 49H100.089L95.3994 35H97.6954L101.307 45.682L104.877 35H107.299L110.883 45.682L114.453 35H116.777L112.087 49H109.693L106.067 38.22L102.469 49ZM124.693 49.364C123.405 49.364 122.229 49.0327 121.165 48.37C120.11 47.7073 119.266 46.8207 118.631 45.71C118.006 44.59 117.693 43.3533 117.693 42C117.693 40.9733 117.875 40.0167 118.239 39.13C118.603 38.234 119.102 37.45 119.737 36.778C120.381 36.0967 121.128 35.5647 121.977 35.182C122.826 34.7993 123.732 34.608 124.693 34.608C125.981 34.608 127.152 34.9393 128.207 35.602C129.271 36.2647 130.116 37.156 130.741 38.276C131.376 39.396 131.693 40.6373 131.693 42C131.693 43.0173 131.511 43.9693 131.147 44.856C130.783 45.7427 130.279 46.5267 129.635 47.208C129 47.88 128.258 48.4073 127.409 48.79C126.569 49.1727 125.664 49.364 124.693 49.364ZM124.693 47.012C125.57 47.012 126.359 46.7833 127.059 46.326C127.768 45.8593 128.324 45.248 128.725 44.492C129.136 43.7267 129.341 42.896 129.341 42C129.341 41.0853 129.131 40.2453 128.711 39.48C128.3 38.7147 127.745 38.1033 127.045 37.646C126.345 37.1887 125.561 36.96 124.693 36.96C123.816 36.96 123.027 37.1933 122.327 37.66C121.627 38.1173 121.072 38.7287 120.661 39.494C120.25 40.2593 120.045 41.0947 120.045 42C120.045 42.9333 120.255 43.7827 120.675 44.548C121.095 45.304 121.66 45.906 122.369 46.354C123.078 46.7927 123.853 47.012 124.693 47.012ZM142.218 37.324C141.984 37.1933 141.732 37.0907 141.462 37.016C141.191 36.9413 140.897 36.904 140.58 36.904C139.805 36.904 139.114 37.114 138.508 37.534C137.91 37.954 137.439 38.5233 137.094 39.242C136.748 39.9607 136.576 40.754 136.576 41.622V49H134.21V35H136.562V37.156C137.066 36.372 137.691 35.756 138.438 35.308C139.184 34.8507 140.01 34.622 140.916 34.622C141.224 34.622 141.518 34.636 141.798 34.664C142.078 34.692 142.344 34.748 142.596 34.832L142.218 37.324ZM156.885 49H154.169L150.445 42.574L147.869 45.654V49H145.531V28H147.869V42L153.735 35H156.815L152.055 40.67L156.885 49ZM173.972 37.352H170.794L170.78 49H168.428L168.442 37.352H166.034V35H168.442L168.428 30.604H170.78L170.794 35H173.972V37.352ZM182.431 49.364C181.143 49.364 179.967 49.0327 178.903 48.37C177.849 47.7073 177.004 46.8207 176.369 45.71C175.744 44.59 175.431 43.3533 175.431 42C175.431 40.9733 175.613 40.0167 175.977 39.13C176.341 38.234 176.841 37.45 177.475 36.778C178.119 36.0967 178.866 35.5647 179.715 35.182C180.565 34.7993 181.47 34.608 182.431 34.608C183.719 34.608 184.891 34.9393 185.945 35.602C187.009 36.2647 187.854 37.156 188.479 38.276C189.114 39.396 189.431 40.6373 189.431 42C189.431 43.0173 189.249 43.9693 188.885 44.856C188.521 45.7427 188.017 46.5267 187.373 47.208C186.739 47.88 185.997 48.4073 185.147 48.79C184.307 49.1727 183.402 49.364 182.431 49.364ZM182.431 47.012C183.309 47.012 184.097 46.7833 184.797 46.326C185.507 45.8593 186.062 45.248 186.463 44.492C186.874 43.7267 187.079 42.896 187.079 42C187.079 41.0853 186.869 40.2453 186.449 39.48C186.039 38.7147 185.483 38.1033 184.783 37.646C184.083 37.1887 183.299 36.96 182.431 36.96C181.554 36.96 180.765 37.1933 180.065 37.66C179.365 38.1173 178.81 38.7287 178.399 39.494C177.989 40.2593 177.783 41.0947 177.783 42C177.783 42.9333 177.993 43.7827 178.413 44.548C178.833 45.304 179.398 45.906 180.107 46.354C180.817 46.7927 181.591 47.012 182.431 47.012ZM202.8 35H205.152V49.448C205.152 50.372 204.951 51.2307 204.55 52.024C204.158 52.8267 203.626 53.522 202.954 54.11C202.282 54.7073 201.517 55.1693 200.658 55.496C199.799 55.832 198.903 56 197.97 56C196.999 56 196.061 55.7807 195.156 55.342C194.251 54.9127 193.457 54.334 192.776 53.606C192.104 52.8873 191.619 52.08 191.32 51.184L193.476 50.204C193.653 50.848 193.971 51.4267 194.428 51.94C194.895 52.4627 195.436 52.8733 196.052 53.172C196.677 53.48 197.317 53.634 197.97 53.634C198.586 53.634 199.179 53.5267 199.748 53.312C200.327 53.0973 200.845 52.7987 201.302 52.416C201.769 52.0427 202.133 51.5993 202.394 51.086C202.665 50.582 202.8 50.036 202.8 49.448V46.662C202.324 47.4647 201.694 48.118 200.91 48.622C200.135 49.1167 199.23 49.364 198.194 49.364C197.205 49.364 196.276 49.1727 195.408 48.79C194.54 48.4073 193.779 47.88 193.126 47.208C192.473 46.5267 191.959 45.7427 191.586 44.856C191.213 43.9693 191.026 43.0173 191.026 42C191.026 40.9827 191.213 40.0307 191.586 39.144C191.959 38.248 192.473 37.464 193.126 36.792C193.779 36.1107 194.54 35.5787 195.408 35.196C196.276 34.8133 197.205 34.622 198.194 34.622C199.23 34.622 200.135 34.8693 200.91 35.364C201.694 35.8587 202.324 36.512 202.8 37.324V35ZM198.208 47.082C199.113 47.082 199.897 46.8487 200.56 46.382C201.232 45.9153 201.75 45.2947 202.114 44.52C202.478 43.7453 202.66 42.9053 202.66 42C202.66 41.0667 202.473 40.2173 202.1 39.452C201.736 38.6773 201.218 38.0613 200.546 37.604C199.883 37.1373 199.104 36.904 198.208 36.904C197.331 36.904 196.528 37.1327 195.8 37.59C195.072 38.0473 194.493 38.6633 194.064 39.438C193.644 40.2033 193.434 41.0573 193.434 42C193.434 42.9427 193.649 43.8013 194.078 44.576C194.517 45.3413 195.095 45.9527 195.814 46.41C196.542 46.858 197.34 47.082 198.208 47.082ZM214.55 49.364C213.262 49.364 212.086 49.0327 211.022 48.37C209.967 47.7073 209.123 46.8207 208.488 45.71C207.863 44.59 207.55 43.3533 207.55 42C207.55 40.9733 207.732 40.0167 208.096 39.13C208.46 38.234 208.959 37.45 209.594 36.778C210.238 36.0967 210.985 35.5647 211.834 35.182C212.683 34.7993 213.589 34.608 214.55 34.608C215.605 34.608 216.571 34.8227 217.448 35.252C218.335 35.672 219.091 36.26 219.716 37.016C220.351 37.772 220.822 38.6493 221.13 39.648C221.447 40.6467 221.564 41.7153 221.48 42.854H210.056C210.168 43.6473 210.429 44.3567 210.84 44.982C211.251 45.598 211.773 46.088 212.408 46.452C213.052 46.816 213.766 47.0027 214.55 47.012C215.39 47.012 216.151 46.7973 216.832 46.368C217.513 45.9293 218.064 45.332 218.484 44.576L220.878 45.136C220.318 46.3773 219.473 47.3947 218.344 48.188C217.215 48.972 215.95 49.364 214.55 49.364ZM209.986 41.006H219.114C219.039 40.222 218.787 39.508 218.358 38.864C217.929 38.2107 217.383 37.688 216.72 37.296C216.057 36.904 215.334 36.708 214.55 36.708C213.766 36.708 213.047 36.8993 212.394 37.282C211.741 37.6647 211.199 38.1827 210.77 38.836C210.35 39.48 210.089 40.2033 209.986 41.006ZM231.127 37.352H227.949L227.935 49H225.583L225.597 37.352H223.189V35H225.597L225.583 30.604H227.935L227.949 35H231.127V37.352ZM246.178 41.566V49H243.826V41.622C243.826 40.754 243.644 39.9607 243.28 39.242C242.925 38.5233 242.44 37.954 241.824 37.534C241.217 37.114 240.545 36.904 239.808 36.904C239.033 36.904 238.352 37.114 237.764 37.534C237.185 37.954 236.732 38.5233 236.406 39.242C236.088 39.9607 235.93 40.754 235.93 41.622V49H233.564V28H235.916V36.96C236.354 36.1387 236.924 35.546 237.624 35.182C238.324 34.8087 239.117 34.622 240.004 34.622C241.226 34.622 242.295 34.9393 243.21 35.574C244.134 36.2087 244.852 37.0533 245.366 38.108C245.888 39.1627 246.159 40.3153 246.178 41.566ZM254.935 49.364C253.647 49.364 252.471 49.0327 251.407 48.37C250.353 47.7073 249.508 46.8207 248.873 45.71C248.248 44.59 247.935 43.3533 247.935 42C247.935 40.9733 248.117 40.0167 248.481 39.13C248.845 38.234 249.345 37.45 249.979 36.778C250.623 36.0967 251.37 35.5647 252.219 35.182C253.069 34.7993 253.974 34.608 254.935 34.608C255.99 34.608 256.956 34.8227 257.833 35.252C258.72 35.672 259.476 36.26 260.101 37.016C260.736 37.772 261.207 38.6493 261.515 39.648C261.833 40.6467 261.949 41.7153 261.865 42.854H250.441C250.553 43.6473 250.815 44.3567 251.225 44.982C251.636 45.598 252.159 46.088 252.793 46.452C253.437 46.816 254.151 47.0027 254.935 47.012C255.775 47.012 256.536 46.7973 257.217 46.368C257.899 45.9293 258.449 45.332 258.869 44.576L261.263 45.136C260.703 46.3773 259.859 47.3947 258.729 48.188C257.6 48.972 256.335 49.364 254.935 49.364ZM250.371 41.006H259.499C259.425 40.222 259.173 39.508 258.743 38.864C258.314 38.2107 257.768 37.688 257.105 37.296C256.443 36.904 255.719 36.708 254.935 36.708C254.151 36.708 253.433 36.8993 252.779 37.282C252.126 37.6647 251.585 38.1827 251.155 38.836C250.735 39.48 250.474 40.2033 250.371 41.006ZM272.46 37.324C272.227 37.1933 271.975 37.0907 271.704 37.016C271.433 36.9413 271.139 36.904 270.822 36.904C270.047 36.904 269.357 37.114 268.75 37.534C268.153 37.954 267.681 38.5233 267.336 39.242C266.991 39.9607 266.818 40.754 266.818 41.622V49H264.452V35H266.804V37.156C267.308 36.372 267.933 35.756 268.68 35.308C269.427 34.8507 270.253 34.622 271.158 34.622C271.466 34.622 271.76 34.636 272.04 34.664C272.32 34.692 272.586 34.748 272.838 34.832L272.46 37.324ZM274.845 43.12V29.4H276.875V43.12H274.845ZM275.867 49.364C275.503 49.364 275.195 49.238 274.943 48.986C274.691 48.734 274.565 48.426 274.565 48.062C274.565 47.7073 274.691 47.4087 274.943 47.166C275.195 46.914 275.503 46.788 275.867 46.788C276.212 46.788 276.506 46.914 276.749 47.166C277.001 47.4087 277.127 47.7073 277.127 48.062C277.127 48.426 277.001 48.734 276.749 48.986C276.506 49.238 276.212 49.364 275.867 49.364Z" fill="#740E45"/>
<rect x="5" y="1" width="301" height="78" rx="39" stroke="#740E45" stroke-width="2"/>
</g>
<defs>
<filter id="filter0_d_18_39" x="0" y="0" width="311" height="88" filterUnits="userSpaceOnUse" color-interpolation-filters="sRGB">
<feFlood flood-opacity="0" result="BackgroundImageFix"/>
<feColorMatrix in="SourceAlpha" type="matrix" values="0 0 0 0 0 0 0 0 0 0 0 0 0 0 0 0 0 0 127 0" result="hardAlpha"/>
<feOffset dy="4"/>
<feGaussianBlur stdDeviation="2"/>
<feComposite in2="hardAlpha" operator="out"/>
<feColorMatrix type="matrix" values="0 0 0 0 0 0 0 0 0 0 0 0 0 0 0 0 0 0 0.25 0"/>
<feBlend mode="normal" in2="BackgroundImageFix" result="effect1_dropShadow_18_39"/>
<feBlend mode="normal" in="SourceGraphic" in2="effect1_dropShadow_18_39" result="shape"/>
</filter>
</defs>
</svg>
