<svg width="303" height="80" viewBox="0 0 303 80" fill="none" xmlns="http://www.w3.org/2000/svg">
<rect x="1" y="1" width="301" height="78" rx="39" stroke="#740E45" stroke-width="2"/>
<path d="M82.96 46V34.8H86.672C87.4453 34.8 88.168 34.9467 88.84 35.24C89.5173 35.528 90.112 35.9307 90.624 36.448C91.1413 36.96 91.544 37.5547 91.832 38.232C92.1253 38.904 92.272 39.6267 92.272 40.4C92.272 41.1733 92.1253 41.8987 91.832 42.576C91.544 43.248 91.1413 43.8427 90.624 44.36C90.112 44.872 89.5173 45.2747 88.84 45.568C88.168 45.856 87.4453 46 86.672 46H82.96ZM84.912 44.048H86.672C87.168 44.048 87.6347 43.9547 88.072 43.768C88.5147 43.576 88.904 43.3147 89.24 42.984C89.576 42.648 89.84 42.2613 90.032 41.824C90.224 41.3813 90.32 40.9067 90.32 40.4C90.32 39.8933 90.224 39.4213 90.032 38.984C89.84 38.5467 89.576 38.16 89.24 37.824C88.904 37.488 88.5173 37.2267 88.08 37.04C87.6427 36.848 87.1733 36.752 86.672 36.752H84.912V44.048ZM98.985 46.208C98.2277 46.208 97.5157 46.0587 96.849 45.76C96.1823 45.456 95.5957 45.0373 95.089 44.504C94.5823 43.9707 94.185 43.3547 93.897 42.656C93.609 41.952 93.465 41.2 93.465 40.4C93.465 39.6 93.609 38.8507 93.897 38.152C94.185 37.448 94.5823 36.8293 95.089 36.296C95.5957 35.7627 96.1823 35.3467 96.849 35.048C97.5157 34.744 98.2277 34.592 98.985 34.592C99.7477 34.592 100.462 34.744 101.129 35.048C101.796 35.3467 102.382 35.7627 102.889 36.296C103.396 36.8293 103.79 37.448 104.073 38.152C104.361 38.8507 104.505 39.6 104.505 40.4C104.505 41.2 104.361 41.952 104.073 42.656C103.79 43.3547 103.396 43.9707 102.889 44.504C102.382 45.0373 101.796 45.456 101.129 45.76C100.462 46.0587 99.7477 46.208 98.985 46.208ZM98.985 44.256C99.4757 44.256 99.937 44.1547 100.369 43.952C100.801 43.7493 101.18 43.472 101.505 43.12C101.836 42.7627 102.092 42.352 102.273 41.888C102.46 41.424 102.553 40.928 102.553 40.4C102.553 39.872 102.46 39.376 102.273 38.912C102.086 38.4427 101.828 38.032 101.497 37.68C101.172 37.328 100.793 37.0507 100.361 36.848C99.9343 36.6453 99.4757 36.544 98.985 36.544C98.4943 36.544 98.033 36.6453 97.601 36.848C97.169 37.0507 96.7877 37.3307 96.457 37.688C96.1317 38.04 95.8757 38.448 95.689 38.912C95.5077 39.376 95.417 39.872 95.417 40.4C95.417 40.9333 95.5103 41.432 95.697 41.896C95.8837 42.36 96.1397 42.7707 96.465 43.128C96.7957 43.48 97.1743 43.7573 97.601 43.96C98.033 44.1573 98.4943 44.256 98.985 44.256ZM108.501 46L105.637 34.8H107.653L109.605 42.456L111.557 34.8H113.333L115.286 42.456L117.238 34.8H119.253L116.406 46H114.182L112.445 39.216L110.717 46H108.501ZM121.1 46V34.8H123.212L127.94 42.472V34.8H129.892V46H127.788L123.052 38.328V46H121.1ZM132.229 46V34.8H134.181V44.048H138.845V46H132.229ZM145.129 46.208C144.371 46.208 143.659 46.0587 142.993 45.76C142.326 45.456 141.739 45.0373 141.233 44.504C140.726 43.9707 140.329 43.3547 140.041 42.656C139.753 41.952 139.609 41.2 139.609 40.4C139.609 39.6 139.753 38.8507 140.041 38.152C140.329 37.448 140.726 36.8293 141.233 36.296C141.739 35.7627 142.326 35.3467 142.993 35.048C143.659 34.744 144.371 34.592 145.129 34.592C145.891 34.592 146.606 34.744 147.273 35.048C147.939 35.3467 148.526 35.7627 149.033 36.296C149.539 36.8293 149.934 37.448 150.217 38.152C150.505 38.8507 150.649 39.6 150.649 40.4C150.649 41.2 150.505 41.952 150.217 42.656C149.934 43.3547 149.539 43.9707 149.033 44.504C148.526 45.0373 147.939 45.456 147.273 45.76C146.606 46.0587 145.891 46.208 145.129 46.208ZM145.129 44.256C145.619 44.256 146.081 44.1547 146.513 43.952C146.945 43.7493 147.323 43.472 147.649 43.12C147.979 42.7627 148.235 42.352 148.417 41.888C148.603 41.424 148.697 40.928 148.697 40.4C148.697 39.872 148.603 39.376 148.417 38.912C148.23 38.4427 147.971 38.032 147.641 37.68C147.315 37.328 146.937 37.0507 146.505 36.848C146.078 36.6453 145.619 36.544 145.129 36.544C144.638 36.544 144.177 36.6453 143.745 36.848C143.313 37.0507 142.931 37.3307 142.601 37.688C142.275 38.04 142.019 38.448 141.833 38.912C141.651 39.376 141.561 39.872 141.561 40.4C141.561 40.9333 141.654 41.432 141.841 41.896C142.027 42.36 142.283 42.7707 142.609 43.128C142.939 43.48 143.318 43.7573 143.745 43.96C144.177 44.1573 144.638 44.256 145.129 44.256ZM155.341 34.8H157.589L161.661 46H159.589L158.869 44.016H154.069L153.349 46H151.277L155.341 34.8ZM154.781 42.064H158.149L156.461 37.448L154.781 42.064ZM163.204 46V34.8H166.916C167.689 34.8 168.412 34.9467 169.084 35.24C169.761 35.528 170.356 35.9307 170.868 36.448C171.385 36.96 171.788 37.5547 172.076 38.232C172.369 38.904 172.516 39.6267 172.516 40.4C172.516 41.1733 172.369 41.8987 172.076 42.576C171.788 43.248 171.385 43.8427 170.868 44.36C170.356 44.872 169.761 45.2747 169.084 45.568C168.412 45.856 167.689 46 166.916 46H163.204ZM165.156 44.048H166.916C167.412 44.048 167.878 43.9547 168.316 43.768C168.758 43.576 169.148 43.3147 169.484 42.984C169.82 42.648 170.084 42.2613 170.276 41.824C170.468 41.3813 170.564 40.9067 170.564 40.4C170.564 39.8933 170.468 39.4213 170.276 38.984C170.084 38.5467 169.82 38.16 169.484 37.824C169.148 37.488 168.761 37.2267 168.324 37.04C167.886 36.848 167.417 36.752 166.916 36.752H165.156V44.048ZM183.222 46.208C182.464 46.208 181.752 46.0587 181.086 45.76C180.419 45.456 179.832 45.0373 179.326 44.504C178.824 43.9707 178.43 43.3547 178.142 42.656C177.859 41.952 177.718 41.2 177.718 40.4C177.718 39.5947 177.859 38.8427 178.142 38.144C178.43 37.44 178.824 36.824 179.326 36.296C179.832 35.7627 180.419 35.3467 181.086 35.048C181.752 34.744 182.464 34.592 183.222 34.592C184.128 34.592 184.963 34.8027 185.726 35.224C186.488 35.64 187.12 36.1973 187.622 36.896L185.878 37.832C185.563 37.4427 185.171 37.1307 184.702 36.896C184.238 36.6613 183.744 36.544 183.222 36.544C182.731 36.544 182.27 36.6453 181.838 36.848C181.406 37.0453 181.027 37.3227 180.702 37.68C180.376 38.032 180.123 38.4427 179.942 38.912C179.76 39.376 179.67 39.872 179.67 40.4C179.67 40.9333 179.76 41.432 179.942 41.896C180.128 42.36 180.384 42.7707 180.71 43.128C181.035 43.48 181.411 43.7573 181.838 43.96C182.27 44.1573 182.731 44.256 183.222 44.256C183.755 44.256 184.251 44.1387 184.71 43.904C185.174 43.664 185.563 43.3493 185.878 42.96L187.622 43.904C187.12 44.5973 186.488 45.1547 185.726 45.576C184.963 45.9973 184.128 46.208 183.222 46.208ZM192.411 46L188.348 34.8H190.42L193.66 43.72L196.9 34.8H198.972L194.9 46H192.411Z" fill="#740E45"/>
<path d="M230.101 38.964C229.591 34.9484 226.153 31.8334 222 31.8334C218.785 31.8334 215.992 33.7117 214.716 36.6739C212.21 37.424 210.333 39.79 210.333 42.3334C210.333 45.4332 212.77 47.9509 215.826 48.1329V48.1667H228.988V48.1632L229 48.1667C231.574 48.1667 233.667 46.0737 233.667 43.5C233.665 42.4541 233.313 41.4389 232.667 40.6166C232.021 39.7943 231.117 39.2125 230.101 38.964ZM217.333 40H220.833V36.5H223.167V40H226.667L222 45.8334L217.333 40Z" fill="#740E45"/>
</svg>
