<svg width="93" height="93" viewBox="0 0 93 93" fill="none" xmlns="http://www.w3.org/2000/svg">
<path d="M46.5001 58.9001C53.3484 58.9001 58.9001 53.3484 58.9001 46.5001C58.9001 39.6518 53.3484 34.1001 46.5001 34.1001C39.6518 34.1001 34.1001 39.6518 34.1001 46.5001C34.1001 53.3484 39.6518 58.9001 46.5001 58.9001Z" fill="black"/>
<path d="M34.875 7.75L27.7838 15.5H15.5C11.2375 15.5 7.75 18.9875 7.75 23.25V69.75C7.75 74.0125 11.2375 77.5 15.5 77.5H77.5C81.7625 77.5 85.25 74.0125 85.25 69.75V23.25C85.25 18.9875 81.7625 15.5 77.5 15.5H65.2163L58.125 7.75H34.875ZM46.5 65.875C35.805 65.875 27.125 57.195 27.125 46.5C27.125 35.805 35.805 27.125 46.5 27.125C57.195 27.125 65.875 35.805 65.875 46.5C65.875 57.195 57.195 65.875 46.5 65.875Z" fill="black"/>
</svg>
