<svg width="96" height="96" viewBox="0 0 96 96" fill="none" xmlns="http://www.w3.org/2000/svg">
<path d="M66.6667 10.6666H29.3333C27.9188 10.6666 26.5623 11.2285 25.5621 12.2287C24.5619 13.2289 24 14.5855 24 16V80C24 81.4145 24.5619 82.771 25.5621 83.7712C26.5623 84.7714 27.9188 85.3333 29.3333 85.3333H66.6667C68.0812 85.3333 69.4377 84.7714 70.4379 83.7712C71.4381 82.771 72 81.4145 72 80V16C72 14.5855 71.4381 13.2289 70.4379 12.2287C69.4377 11.2285 68.0812 10.6666 66.6667 10.6666ZM29.3333 16H66.6667V64H29.3333V16ZM29.3333 80V69.3333H66.6667V80H29.3333Z" fill="black"/>
<path d="M45.3333 72H50.6666V77.3333H45.3333V72Z" fill="black"/>
</svg>
