<svg width="130" height="88" viewBox="0 0 130 88" fill="none" xmlns="http://www.w3.org/2000/svg">
<path d="M117.325 50.4375C119.313 52.4783 120.761 54.9817 121.541 57.7219H126.875V67.1H121.541C120.762 69.8425 119.314 72.348 117.325 74.3906L119.997 79.0156L111.878 83.7031L109.212 79.0781C106.448 79.7752 103.555 79.7752 100.791 79.0781L98.1219 83.7031L90.0031 79.0156L92.675 74.3906C90.6864 72.348 89.2376 69.8425 88.4594 67.1H83.125V57.725H88.4594C89.2376 54.9825 90.6864 52.477 92.675 50.4344L90 45.8125L98.1156 41.125H98.125L100.794 45.7437C103.558 45.0466 106.452 45.0466 109.216 45.7437L111.875 41.125H111.881L120 45.8125L117.328 50.4375H117.325ZM114.375 62.4125C114.375 59.9261 113.387 57.5415 111.629 55.7834C109.871 54.0252 107.486 53.0375 105 53.0375C102.514 53.0375 100.129 54.0252 98.3709 55.7834C96.6127 57.5415 95.625 59.9261 95.625 62.4125C95.625 64.8989 96.6127 67.2835 98.3709 69.0416C100.129 70.7998 102.514 71.7875 105 71.7875C107.486 71.7875 109.871 70.7998 111.629 69.0416C113.387 67.2835 114.375 64.8989 114.375 62.4125Z" fill="black"/>
<path d="M62.706 20.895C66.0453 24.3236 68.4792 28.5292 69.7883 33.1327H78.75V48.888H69.7883C68.4808 53.4953 66.0468 57.7047 62.706 61.1363L67.1947 68.9062L53.5553 76.7812L49.077 69.0113C44.4335 70.1824 39.5718 70.1824 34.9282 69.0113L30.4447 76.7812L16.8053 68.9062L21.294 61.1363C17.9532 57.7047 15.5192 53.4953 14.2118 48.888H5.25V33.138H14.2118C15.5192 28.5307 17.9532 24.3213 21.294 20.8898L16.8 13.125L30.4342 5.25H30.45L34.9335 13.0095C39.577 11.8383 44.4387 11.8383 49.0822 13.0095L53.55 5.25H53.5605L67.2 13.125L62.7113 20.895H62.706ZM57.75 41.013C57.75 36.8358 56.0906 32.8298 53.1369 29.8761C50.1832 26.9224 46.1772 25.263 42 25.263C37.8228 25.263 33.8168 26.9224 30.8631 29.8761C27.9094 32.8298 26.25 36.8358 26.25 41.013C26.25 45.1902 27.9094 49.1962 30.8631 52.1499C33.8168 55.1036 37.8228 56.763 42 56.763C46.1772 56.763 50.1832 55.1036 53.1369 52.1499C56.0906 49.1962 57.75 45.1902 57.75 41.013Z" fill="black"/>
</svg>
