<svg width="53" height="27" viewBox="0 0 53 27" fill="none" xmlns="http://www.w3.org/2000/svg">
<path d="M0.828 19.16C0.828 23.516 3.528 26.396 8.748 26.396C14.472 26.396 18.216 22.94 18.216 17.72V4.004C18.216 1.988 19.584 1.16 21.6 1.16V0.799998H9.432V1.16C11.34 1.16 12.636 2.24 12.816 4.004V17.828C12.816 22.472 10.656 25.712 7.308 25.712C4.86 25.712 3.168 23.984 3.168 21.392C3.168 19.628 5.508 19.664 5.508 17.684C5.508 16.388 4.752 15.488 3.348 15.488C1.944 15.488 0.828 16.856 0.828 19.16ZM26.1764 26H33.6644V25.64C31.7204 25.64 30.3524 24.668 30.2804 22.796V2.24L48.5324 26H48.8924V3.968C48.9644 2.096 50.3324 1.16 52.2764 1.16V0.799998H44.7884V1.16C46.8044 1.16 48.1724 2.06 48.1724 3.968V16.712C48.1724 16.712 36.1484 0.799998 36.0404 0.799998H26.1764V1.16C28.1924 1.16 29.5604 2.06 29.5604 4.004V22.796C29.5604 24.704 28.1924 25.64 26.1764 25.64V26Z" fill="#6F3052"/>
</svg>
