<svg width="93" height="93" viewBox="0 0 93 93" fill="none" xmlns="http://www.w3.org/2000/svg">
<path d="M78.4688 17.4375C79.2395 17.4375 79.9788 17.7437 80.5238 18.2887C81.0688 18.8337 81.375 19.573 81.375 20.3438V63.9375H11.625V20.3438C11.625 19.573 11.9312 18.8337 12.4762 18.2887C13.0212 17.7437 13.7605 17.4375 14.5312 17.4375H78.4688ZM14.5312 11.625C12.2189 11.625 10.0012 12.5436 8.36616 14.1787C6.73108 15.8137 5.8125 18.0314 5.8125 20.3438V69.75H87.1875V20.3438C87.1875 18.0314 86.2689 15.8137 84.6338 14.1787C82.9988 12.5436 80.7811 11.625 78.4688 11.625H14.5312ZM0 72.6562H93C93 74.9686 92.0814 77.1863 90.4463 78.8213C88.8113 80.4564 86.5936 81.375 84.2812 81.375H8.71875C6.40639 81.375 4.18875 80.4564 2.55366 78.8213C0.91858 77.1863 0 74.9686 0 72.6562H0Z" fill="black"/>
</svg>
