<svg width="23" height="23" viewBox="0 0 23 23" fill="none" xmlns="http://www.w3.org/2000/svg">
<path d="M4.50957 0.00585938C2.03207 0.00585938 0.00439453 2.03349 0.00439453 4.51103V18.4914C0.00439453 20.9689 2.03203 22.9958 4.50957 22.9958H18.4899C20.9674 22.9958 22.9943 20.9689 22.9943 18.4914V4.51103C22.9943 2.03354 20.9674 0.00585938 18.4899 0.00585938H4.50957ZM5.64268 3.79966C6.83059 3.79966 7.56229 4.5795 7.58487 5.60459C7.58487 6.60704 6.83054 7.4088 5.61971 7.4088H5.59742C4.43212 7.4088 3.67894 6.60709 3.67894 5.60459C3.67894 4.57953 4.45492 3.79966 5.64266 3.79966H5.64268ZM15.8795 8.59079C18.1641 8.59079 19.8767 10.084 19.8767 13.2928V19.2832H16.4048V13.6944C16.4048 12.2901 15.9023 11.3319 14.6458 11.3319C13.6866 11.3319 13.1149 11.9777 12.8639 12.6016C12.7722 12.8248 12.7496 13.1365 12.7496 13.4487V19.2832H9.27772C9.27772 19.2832 9.32328 9.81605 9.27772 8.83579H12.7504V10.3152C13.2117 9.60339 14.037 8.59077 15.8795 8.59077V8.59079ZM3.88374 8.83655H7.35565V19.2832H3.88374V8.83655V8.83655Z" fill="#CACACA"/>
</svg>
