<svg width="243" height="237" viewBox="0 0 243 237" fill="none" xmlns="http://www.w3.org/2000/svg">
<path d="M43.0313 0H199.969C223.763 0 243 19.2436 243 43.0449V193.955C243 217.756 223.763 237 199.969 237H43.0313C19.2375 237 0 217.756 0 193.955V43.0449C0 19.2436 19.2375 0 43.0313 0Z" fill="#00005B"/>
<path d="M57.7125 166.204V61.9846C57.7125 61.2756 58.0163 60.8705 58.725 60.8705C60.4463 60.8705 62.0663 60.8705 64.395 60.7692C66.825 60.6679 69.3563 60.6679 72.09 60.5667C74.8238 60.4654 77.76 60.4654 80.8988 60.3641C84.0375 60.2628 87.075 60.2628 90.1125 60.2628C98.415 60.2628 105.3 61.2756 110.97 63.4026C116.033 65.1244 120.69 67.9603 124.538 71.7077C127.778 74.9487 130.309 78.8987 131.929 83.2538C133.448 87.5077 134.258 91.8628 134.258 96.4205C134.258 105.131 132.233 112.322 128.183 117.994C124.133 123.665 118.463 127.919 111.881 130.35C104.996 132.882 97.4025 133.794 89.1 133.794C86.67 133.794 85.05 133.794 84.0375 133.692C83.025 133.591 81.6075 133.591 79.6838 133.591V166.103C79.785 166.812 79.2788 167.419 78.57 167.521C78.4688 167.521 78.3675 167.521 78.165 167.521H58.9275C58.1175 167.521 57.7125 167.115 57.7125 166.204ZM79.785 80.4179V114.449C81.2025 114.55 82.5188 114.651 83.7338 114.651H89.1C93.0488 114.651 96.9975 114.044 100.744 112.828C103.984 111.917 106.819 109.992 109.046 107.46C111.173 104.928 112.185 101.485 112.185 97.0282C112.286 93.8885 111.476 90.7487 109.856 88.0141C108.135 85.3808 105.705 83.3551 102.769 82.241C99.0225 80.7218 94.9725 80.1141 90.8213 80.2154C88.1888 80.2154 85.86 80.2154 83.9363 80.3167C81.9113 80.2154 80.4938 80.3167 79.785 80.4179Z" fill="#9999FF"/>
<path d="M148.433 86.2922H166.151C167.164 86.2922 167.974 87.0012 168.278 87.9127C168.581 88.723 168.784 89.5332 168.885 90.4448C169.088 91.4576 169.29 92.5717 169.391 93.5845C169.493 94.6986 169.594 95.914 169.594 97.2307C172.631 93.6858 176.276 90.7486 180.428 88.5204C185.085 85.8871 190.451 84.5704 195.818 84.5704C196.526 84.4691 197.134 84.9755 197.235 85.6845C197.235 85.7858 197.235 85.8871 197.235 86.0896V105.84C197.235 106.65 196.729 106.954 195.615 106.954C191.97 106.852 188.224 107.156 184.68 107.967C181.744 108.574 178.909 109.486 176.175 110.701C174.251 111.613 172.429 112.828 171.011 114.449V166.102C171.011 167.115 170.606 167.52 169.695 167.52H149.749C148.939 167.622 148.23 167.115 148.129 166.305C148.129 166.204 148.129 166.001 148.129 165.9V109.79C148.129 107.359 148.129 104.827 148.028 102.193C147.926 99.5601 147.926 96.9268 147.825 94.2935C147.825 91.964 147.623 89.7358 147.42 87.4063C147.319 86.8999 147.623 86.3935 148.129 86.2922C148.129 86.1909 148.331 86.1909 148.433 86.2922Z" fill="#9999FF"/>
</svg>
