<svg width="208" height="293" viewBox="0 0 208 293" fill="none" xmlns="http://www.w3.org/2000/svg">
<path d="M103.873 292.26L19.2254 268.786L0.361572 57.4361H207.638L188.755 268.753L103.873 292.26V292.26Z" fill="#264DE4"/>
<path d="M172.589 255.297L188.725 74.7166H104V274.292L172.589 255.297V255.297Z" fill="#2965F1"/>
<path d="M43.6061 153.103L45.9314 179.025H104V153.103H43.6061ZM38.9326 100.639L41.2912 126.56H104V100.639H38.9326V100.639ZM104 220.424L103.886 220.454L74.9872 212.659L73.1396 191.986H47.0909L50.726 232.686L103.881 247.425L104 247.393V220.424Z" fill="#EBEBEB"/>
<path d="M49.1432 0H80.5707V13.129H62.2863V26.258H80.5724V39.3862H49.1432V0ZM86.8571 0H118.285V11.4164H100V13.6996H118.285V39.9576H86.8579V27.9689H105.143V25.6858H86.8562V0H86.8571ZM124.572 0H156V11.4164H137.715V13.6996H156V39.9576H124.572V27.9689H142.857V25.6858H124.572V0H124.572Z" fill="black"/>
<path d="M164.228 153.103L168.912 100.639H103.911V126.56H140.475L138.114 153.103H103.911V179.025H135.864L132.851 212.643L103.91 220.446V247.413L157.107 232.686L157.497 228.306L163.595 160.064L164.228 153.103V153.103Z" fill="white"/>
</svg>
