<svg width="192" height="288" viewBox="0 0 192 288" fill="none" xmlns="http://www.w3.org/2000/svg">
<path d="M48 288C74.496 288 96 266.496 96 240V192H48C21.504 192 0 213.504 0 240C0 266.496 21.504 288 48 288Z" fill="#0ACF83"/>
<path d="M0 144C0 117.504 21.504 96 48 96H96V192H48C21.504 192 0 170.496 0 144Z" fill="#A259FF"/>
<path d="M0 48C0 21.504 21.504 0 48 0H96V96H48C21.504 96 0 74.496 0 48Z" fill="#F24E1E"/>
<path d="M96 0H144C170.496 0 192 21.504 192 48C192 74.496 170.496 96 144 96H96V0Z" fill="#FF7262"/>
<path d="M192 144C192 170.496 170.496 192 144 192C117.504 192 96 170.496 96 144C96 117.504 117.504 96 144 96C170.496 96 192 117.504 192 144Z" fill="#1ABCFE"/>
</svg>
