<svg width="243" height="237" viewBox="0 0 243 237" fill="none" xmlns="http://www.w3.org/2000/svg">
<path d="M199.969 0H43.0313C19.2657 0 0 19.2718 0 43.0449V193.955C0 217.728 19.2657 237 43.0313 237H199.969C223.734 237 243 217.728 243 193.955V43.0449C243 19.2718 223.734 0 199.969 0Z" fill="#330000"/>
<path d="M117.754 142.228H80.0981L72.4366 166.036C72.3322 166.47 72.0797 166.854 71.7226 167.122C71.3655 167.39 70.9262 167.525 70.4804 167.503H51.408C50.3203 167.503 49.94 166.905 50.2669 165.71L82.8691 71.7845C83.1954 70.8063 83.5216 69.692 83.8475 68.4416C84.274 66.266 84.4923 64.0548 84.4996 61.8378C84.4775 61.6827 84.4917 61.5246 84.5413 61.3761C84.5908 61.2275 84.6742 61.0925 84.7849 60.9817C84.8956 60.8709 85.0306 60.7875 85.1791 60.7379C85.3276 60.6883 85.4857 60.674 85.6407 60.6961H111.559C112.319 60.6961 112.753 60.968 112.863 61.5116L149.868 165.872C150.193 166.96 149.867 167.504 148.889 167.503H127.697C127.334 167.544 126.967 167.45 126.667 167.24C126.367 167.03 126.154 166.718 126.067 166.362L117.754 142.228ZM85.9665 121.682H111.722C111.07 119.509 110.31 117.063 109.44 114.344C108.569 111.628 107.646 108.72 106.669 105.62C105.691 102.522 104.713 99.424 103.735 96.3256C102.757 93.2275 101.86 90.238 101.045 87.3571C100.23 84.4781 99.4965 81.842 98.8447 79.4486H98.6816C97.7639 83.8526 96.6213 88.2066 95.2585 92.4936C93.7353 97.3856 92.1865 102.386 90.6122 107.496C89.0356 112.607 87.4871 117.336 85.9665 121.682H85.9665Z" fill="#FF9A00"/>
<path d="M171.872 77.9811C170.21 78.0479 168.552 77.7629 167.007 77.1447C165.462 76.5265 164.064 75.5891 162.907 74.3937C161.752 73.1465 160.855 71.6833 160.267 70.0882C159.68 68.4931 159.413 66.7975 159.483 65.099C159.424 63.4173 159.72 61.7421 160.352 60.1826C160.984 58.6231 161.938 57.2146 163.151 56.0489C164.352 54.8953 165.77 53.9915 167.323 53.3897C168.876 52.788 170.533 52.5002 172.198 52.5431C176.111 52.5431 179.181 53.7117 181.408 56.0489C182.533 57.2635 183.407 58.6881 183.98 60.2411C184.554 61.794 184.815 63.4448 184.75 65.099C184.818 66.8042 184.543 68.5056 183.941 70.1023C183.339 71.699 182.422 73.1583 181.245 74.3937C180.015 75.6066 178.547 76.5515 176.934 77.1689C175.321 77.7864 173.597 78.0629 171.872 77.9811ZM160.624 165.872V87.9278C160.624 86.9496 161.057 86.4602 161.928 86.4602H181.979C182.848 86.4602 183.282 86.9494 183.283 87.9278V165.872C183.283 166.96 182.848 167.504 181.979 167.503H162.091C161.113 167.503 160.624 166.96 160.624 165.872V165.872Z" fill="#FF9A00"/>
</svg>
