<svg width="136" height="192" viewBox="0 0 136 192" fill="none" xmlns="http://www.w3.org/2000/svg">
<path d="M135.764 37.6373L123.417 176.111L67.9171 191.515L12.5704 176.133L0.236389 37.6373H135.764Z" fill="#E44D26"/>
<path d="M68 179.741L112.847 167.294L123.397 48.9611H68V179.741Z" fill="#F16529"/>
<path d="M43.9982 82.9334H68V65.9475H25.4559L25.8618 70.5045L30.0321 117.313H68V100.327H45.5489L43.9982 82.9334V82.9334ZM47.8221 125.806H30.7902L33.167 152.477L67.9219 162.135L68 162.114V144.441L67.9257 144.461L49.0302 139.353L47.8221 125.806Z" fill="#EBEBEB"/>
<path d="M12.8456 0H21.4678V8.52831H29.3553V0H37.978V25.8259H29.3558V17.1779H21.4684V25.8259H12.8462V0H12.8456ZM49.316 8.56448H41.7265V0H65.534V8.56448H57.9397V25.8259H49.3175V8.56448H49.317H49.316ZM69.3122 0H78.3026L83.8329 9.07453L89.3579 0H98.3519V25.8259H89.7648V13.0252L83.8329 22.2076H83.6841L77.7485 13.0252V25.8259H69.3122V0ZM102.643 0H111.268V17.2896H123.393V25.8259H102.642V0H102.643Z" fill="black"/>
<path d="M67.9416 117.313H88.834L86.8642 139.343L67.941 144.456V162.127L102.724 152.477L102.979 149.607L106.966 104.888L107.38 100.327H67.9416V117.313ZM67.9416 82.8919V82.9334H108.924L109.264 79.1157L110.037 70.5045L110.443 65.9475H67.9416V82.8924V82.8919Z" fill="white"/>
</svg>
