<svg width="261" height="256" viewBox="0 0 261 256" fill="none" xmlns="http://www.w3.org/2000/svg">
<path d="M130.5 0C154.176 0 176.011 5.84397 196.005 17.5319C215.999 29.2199 231.83 45.078 243.498 65.1064C255.166 85.1347 261 107.007 261 130.723C261 159.206 252.702 184.823 236.106 207.574C219.511 230.326 198.072 246.071 171.791 254.809C168.732 255.376 166.467 254.979 164.994 253.617C163.521 252.255 162.785 250.553 162.785 248.511C162.785 248.17 162.813 243.83 162.87 235.489C162.927 227.149 162.955 219.518 162.955 212.596C162.955 201.589 160.01 193.532 154.119 188.426C160.576 187.745 166.382 186.723 171.536 185.362C176.69 184 182.015 181.787 187.509 178.723C193.003 175.66 197.591 171.887 201.272 167.404C204.954 162.922 207.956 156.965 210.278 149.532C212.601 142.099 213.762 133.56 213.762 123.915C213.762 110.411 209.287 98.7234 200.338 88.8511C204.529 78.5248 204.076 66.9504 198.979 54.1277C195.807 53.1064 191.219 53.7305 185.215 56C179.211 58.2695 174 60.766 169.582 63.4894L163.125 67.5745C152.59 64.6241 141.715 63.1489 130.5 63.1489C119.285 63.1489 108.41 64.6241 97.875 67.5745C96.0625 66.3262 93.6553 64.7943 90.6533 62.9787C87.6514 61.1631 82.9219 58.9787 76.4648 56.4255C70.0078 53.8723 65.1934 53.1064 62.0215 54.1277C56.9238 66.9504 56.4707 78.5248 60.6621 88.8511C51.7129 98.7234 47.2383 110.411 47.2383 123.915C47.2383 133.56 48.3994 142.071 50.7217 149.447C53.0439 156.823 56.0176 162.78 59.6426 167.319C63.2676 171.858 67.8271 175.66 73.3213 178.723C78.8154 181.787 84.1396 184 89.2939 185.362C94.4482 186.723 100.254 187.745 106.711 188.426C102.293 192.511 99.5176 198.355 98.3848 205.957C96.0059 207.092 93.457 207.943 90.7383 208.511C88.0195 209.078 84.791 209.362 81.0527 209.362C77.3145 209.362 73.6045 208.142 69.9229 205.702C66.2412 203.262 63.0977 199.716 60.4922 195.064C58.3398 191.433 55.5928 188.482 52.251 186.213C48.9092 183.943 46.1055 182.582 43.8398 182.128L40.4414 181.617C38.0625 181.617 36.4199 181.872 35.5137 182.383C34.6074 182.894 34.3242 183.546 34.6641 184.34C35.0039 185.135 35.5137 185.929 36.1934 186.723C36.873 187.518 37.6094 188.199 38.4023 188.766L39.5918 189.617C42.084 190.752 44.5479 192.908 46.9834 196.085C49.4189 199.262 51.2031 202.156 52.3359 204.766L54.0352 208.681C55.5078 212.993 58 216.482 61.5117 219.149C65.0234 221.816 68.8184 223.518 72.8965 224.255C76.9746 224.993 80.9111 225.39 84.7061 225.447C88.501 225.504 91.6445 225.305 94.1367 224.851L98.0449 224.17C98.0449 228.482 98.0732 233.504 98.1299 239.234C98.1865 244.965 98.2148 248.057 98.2148 248.511C98.2148 250.553 97.4785 252.255 96.0059 253.617C94.5332 254.979 92.2676 255.376 89.209 254.809C62.9277 246.071 41.4893 230.326 24.8936 207.574C8.29785 184.823 0 159.206 0 130.723C0 107.007 5.83398 85.1347 17.502 65.1064C29.1699 45.078 45.001 29.2199 64.9951 17.5319C84.9893 5.84397 106.824 0 130.5 0ZM49.4473 187.745C49.7871 186.95 49.3906 186.269 48.2578 185.702C47.125 185.362 46.3887 185.475 46.0488 186.043C45.709 186.837 46.1055 187.518 47.2383 188.085C48.2578 188.766 48.9941 188.652 49.4473 187.745ZM54.7148 193.532C55.5078 192.965 55.3945 192.057 54.375 190.809C53.2422 189.787 52.3359 189.617 51.6562 190.298C50.8633 190.865 50.9766 191.773 51.9961 193.021C53.1289 194.156 54.0352 194.326 54.7148 193.532ZM59.8125 201.191C60.832 200.397 60.832 199.319 59.8125 197.957C58.9062 196.482 57.9434 196.142 56.9238 196.936C55.9043 197.504 55.9043 198.525 56.9238 200C57.9434 201.475 58.9062 201.872 59.8125 201.191ZM66.9492 208.34C67.8555 207.433 67.6289 206.355 66.2695 205.106C64.9102 203.745 63.7773 203.574 62.8711 204.596C61.8516 205.504 62.0781 206.582 63.5508 207.83C64.9102 209.191 66.043 209.362 66.9492 208.34ZM76.6348 212.596C76.9746 211.348 76.2383 210.44 74.4258 209.872C72.7266 209.418 71.6504 209.816 71.1973 211.064C70.7441 212.312 71.4805 213.163 73.4062 213.617C75.1055 214.298 76.1816 213.957 76.6348 212.596ZM87.3398 213.447C87.3398 211.972 86.377 211.348 84.4512 211.574C82.6387 211.574 81.7324 212.199 81.7324 213.447C81.7324 214.922 82.6953 215.546 84.6211 215.319C86.4336 215.319 87.3398 214.695 87.3398 213.447ZM97.1953 211.745C96.9687 210.496 95.9492 209.986 94.1367 210.213C92.3242 210.553 91.5312 211.404 91.7578 212.766C91.9844 214.128 93.0039 214.582 94.8164 214.128C96.6289 213.674 97.4219 212.879 97.1953 211.745Z" fill="black"/>
</svg>
