<svg width="22" height="22" viewBox="0 0 22 22" fill="none" xmlns="http://www.w3.org/2000/svg">
<g clip-path="url(#clip0_222_86)">
<path d="M17.897 13.4942H17.9043C18.4947 13.4942 19.0731 13.4401 19.6332 13.3365L19.5754 13.3457C18.5249 17.1242 15.1149 19.8522 11.0678 19.8522H11.0147H11.0174C6.11967 19.8467 2.1505 15.8775 2.14592 10.9797V10.9788C2.1574 9.05186 2.79074 7.18011 3.95169 5.64209C5.11264 4.10407 6.73914 2.98199 8.58917 2.44282L8.65242 2.42724C8.55223 2.97736 8.50252 3.53549 8.50392 4.09465V4.10107C8.5085 9.28757 12.7114 13.4905 17.897 13.4951H17.8979L17.897 13.4942ZM11.0055 0.430738C10.8963 0.283394 10.7509 0.166738 10.5834 0.092062C10.4159 0.0173863 10.232 -0.0127786 10.0494 0.0044877H10.054C4.41192 0.546238 0.0311667 5.2469 0 10.9779V10.9807C0.00733333 17.0627 4.93625 21.9917 11.0174 21.9999H11.0733C16.7961 21.9999 21.4931 17.6127 21.9863 12.0183L21.989 11.9771C22.0048 11.803 21.9777 11.6276 21.9101 11.4664C21.8425 11.3052 21.7365 11.163 21.6013 11.0522L21.5994 11.0503C21.4629 10.938 21.3007 10.8614 21.1272 10.8273C20.9538 10.7932 20.7746 10.8028 20.6058 10.8551L20.6131 10.8532L20.1327 10.9962C19.4124 11.2324 18.6588 11.3516 17.9007 11.3492H17.8943C15.9736 11.347 14.1322 10.583 12.7741 9.2249C11.416 7.86678 10.652 6.02541 10.6498 4.10474V4.08824C10.6498 3.14407 10.8313 2.24207 11.1613 1.41615L11.1439 1.46474C11.2113 1.29382 11.2337 1.10845 11.2088 0.92641C11.1839 0.744372 11.1126 0.57179 11.0018 0.425238L11.0037 0.427988L11.0055 0.430738Z" fill="white"/>
</g>
<defs>
<clipPath id="clip0_222_86">
<rect width="22" height="22" fill="white"/>
</clipPath>
</defs>
</svg>
