<svg width="93" height="93" viewBox="0 0 93 93" fill="none" xmlns="http://www.w3.org/2000/svg">
<path fill-rule="evenodd" clip-rule="evenodd" d="M75.423 64.8955C80.2776 46.7791 68.7828 28.0675 49.8992 23.0083C28.5743 17.2888 -1.69257 32.1409 5.04063 51.192C7.27263 57.4927 11.5692 58.9668 19.6742 59.083L20.181 59.0923C24.4637 59.1435 25.668 59.4225 26.0307 60.0084C26.6213 60.9756 26.6306 62.5147 25.9656 66.7509C25.6494 68.7504 25.5471 69.4479 25.4262 70.5406C24.6869 77.1948 25.8122 82.3842 30.1692 87.0807C43.7844 101.742 69.9407 85.3462 75.423 64.8955ZM13.8105 48.0858C10.4207 38.5068 32.1129 27.8629 47.4905 31.9828C61.5195 35.7447 69.9314 49.4389 66.4392 62.4822C62.5425 77.0274 44.2029 88.5222 36.9861 80.7474C34.7541 78.348 34.2008 75.7812 34.6704 71.5636C34.7681 70.6615 34.8611 70.0384 35.154 68.1877C36.1724 61.6917 36.1584 58.725 33.9543 55.1398C31.1922 50.6433 27.9093 49.8853 20.2973 49.7877L19.8044 49.7784C15.3218 49.7179 14.2569 49.3506 13.8059 48.0858H13.8105Z" fill="black"/>
<path d="M27.9001 46.5001C26.3586 46.5001 24.8801 45.8877 23.7901 44.7977C22.7 43.7076 22.0876 42.2292 22.0876 40.6876C22.0876 39.146 22.7 37.6676 23.7901 36.5775C24.8801 35.4875 26.3586 34.8751 27.9001 34.8751C29.4417 34.8751 30.9201 35.4875 32.0102 36.5775C33.1003 37.6676 33.7126 39.146 33.7126 40.6876C33.7126 42.2292 33.1003 43.7076 32.0102 44.7977C30.9201 45.8877 29.4417 46.5001 27.9001 46.5001ZM45.3376 46.5001C43.7961 46.5001 42.3176 45.8877 41.2276 44.7977C40.1375 43.7076 39.5251 42.2292 39.5251 40.6876C39.5251 39.146 40.1375 37.6676 41.2276 36.5775C42.3176 35.4875 43.7961 34.8751 45.3376 34.8751C46.8792 34.8751 48.3577 35.4875 49.4477 36.5775C50.5378 37.6676 51.1501 39.146 51.1501 40.6876C51.1501 42.2292 50.5378 43.7076 49.4477 44.7977C48.3577 45.8877 46.8792 46.5001 45.3376 46.5001ZM56.9626 60.4501C55.4211 60.4501 53.9426 59.8377 52.8526 58.7477C51.7625 57.6576 51.1501 56.1792 51.1501 54.6376C51.1501 53.096 51.7625 51.6176 52.8526 50.5275C53.9426 49.4375 55.4211 48.8251 56.9626 48.8251C58.5042 48.8251 59.9827 49.4375 61.0727 50.5275C62.1628 51.6176 62.7751 53.096 62.7751 54.6376C62.7751 56.1792 62.1628 57.6576 61.0727 58.7477C59.9827 59.8377 58.5042 60.4501 56.9626 60.4501ZM49.9876 76.7251C48.4461 76.7251 46.9676 76.1127 45.8776 75.0227C44.7875 73.9326 44.1751 72.4542 44.1751 70.9126C44.1751 69.371 44.7875 67.8926 45.8776 66.8025C46.9676 65.7125 48.4461 65.1001 49.9876 65.1001C51.5292 65.1001 53.0077 65.7125 54.0977 66.8025C55.1878 67.8926 55.8001 69.371 55.8001 70.9126C55.8001 72.4542 55.1878 73.9326 54.0977 75.0227C53.0077 76.1127 51.5292 76.7251 49.9876 76.7251ZM66.8206 16.7634C67.372 16.468 67.9773 16.2868 68.6003 16.2308C69.2233 16.1748 69.8511 16.2451 70.4463 16.4374C71.0415 16.6297 71.5918 16.9402 72.0643 17.3501C72.5367 17.7601 72.9215 18.2611 73.1958 18.8233L92.2282 57.8833C92.546 58.5854 92.5845 59.3822 92.3358 60.1116C92.0872 60.8411 91.5701 61.4485 90.8896 61.8103C90.2092 62.1721 89.4165 62.2613 88.6727 62.0596C87.9289 61.8579 87.2898 61.3805 86.8854 60.7245L64.9932 23.1989C64.6785 22.6591 64.476 22.0613 64.398 21.4413C64.32 20.8214 64.3679 20.192 64.539 19.5911C64.7101 18.9901 65.0008 18.4298 65.3937 17.9439C65.7865 17.458 66.2735 17.0565 66.8253 16.7634H66.8206Z" fill="black"/>
<path fill-rule="evenodd" clip-rule="evenodd" d="M58.2973 16.2007C60.5618 20.4555 64.3702 21.6459 68.053 19.6882C71.7311 17.7352 72.8797 13.9082 70.6151 9.6535C68.0297 4.7803 62.4869 0.3628 58.8134 2.31115C55.1399 4.26415 55.7072 11.3275 58.3019 16.2007H58.2973ZM62.4032 14.0152C61.5798 12.3618 61.075 10.5683 60.9152 8.72815C60.846 7.95889 60.8741 7.18397 60.9989 6.42175L61.0826 6.4636C61.3151 6.5752 62.0359 6.91 62.9566 7.6447C64.3609 8.76535 65.7559 10.4161 66.5092 11.8344C67.574 13.8338 67.2718 14.8383 65.8675 15.5869C64.4725 16.3309 63.4681 16.0147 62.4032 14.0199V14.0152Z" fill="black"/>
</svg>
