<svg width="93" height="93" viewBox="0 0 93 93" fill="none" xmlns="http://www.w3.org/2000/svg">
<path d="M84.8625 37.2001C84.0875 35.2626 81.7626 34.4876 79.8251 35.2626L68.5876 40.6876L60.4501 32.5501L52.3125 24.4126L57.7375 13.1751C58.5126 11.2376 57.7375 8.91256 55.8 8.13756C53.8625 7.36256 51.5376 8.13756 50.7626 10.0751L44.9501 22.0876L20.15 25.9626C18.6 26.3501 17.4375 27.5126 17.05 29.0626L7.75005 74.0126C7.36255 75.1751 7.75005 76.7251 8.91255 77.5001L15.5 84.0876C16.275 84.8626 17.4375 85.2501 18.2125 85.2501H18.9875L63.9375 75.9501C65.4875 75.5626 66.65 74.4001 67.0375 72.8501L70.9125 48.0501L82.925 42.2376C84.8625 41.4626 85.6376 39.1376 84.8625 37.2001ZM59.675 68.9751L21.7 76.7251L36.0375 62.3876C41.85 65.1001 48.8251 62.7751 51.5376 56.9626C54.25 51.1501 51.925 44.1751 46.1125 41.4626C41.85 39.5251 36.425 40.3001 32.9375 43.7876C29.45 47.2751 28.675 52.7001 30.6125 56.9626L16.275 71.3001L24.025 33.3251L46.5 29.4501L55.0251 37.9751L63.55 46.5001L59.675 68.9751ZM37.2001 51.9251C37.2001 50.7626 37.5875 49.9876 38.3625 49.2126C39.9125 47.6626 42.2376 47.6626 43.7876 49.2126C45.3376 50.7626 45.3376 53.0876 43.7876 54.6376C42.2376 56.1876 39.9125 56.1876 38.3625 54.6376C37.5875 53.8626 37.2001 52.7001 37.2001 51.9251Z" fill="black"/>
</svg>
