<svg width="499" height="499" viewBox="0 0 499 499" fill="none" xmlns="http://www.w3.org/2000/svg">
<path d="M139 153.556V291.333H207.75V236.222C207.75 228.914 210.647 221.905 215.805 216.738C220.962 211.57 227.957 208.667 235.25 208.667H304C311.293 208.667 318.288 211.57 323.445 216.738C328.603 221.905 331.5 228.914 331.5 236.222V291.333H359V153.556H139ZM84 346.444V318.889H139C131.707 318.889 124.712 315.986 119.555 310.818C114.397 305.65 111.5 298.642 111.5 291.333V153.556C111.5 146.247 114.397 139.239 119.555 134.071C124.712 128.903 131.707 126 139 126H359C366.293 126 373.288 128.903 378.445 134.071C383.603 139.239 386.5 146.247 386.5 153.556V291.333C386.5 298.642 383.603 305.65 378.445 310.818C373.288 315.986 366.293 318.889 359 318.889H414V346.444H331.5C331.5 353.753 328.603 360.761 323.445 365.929C318.288 371.097 311.293 374 304 374H235.25C227.957 374 220.962 371.097 215.805 365.929C210.647 360.761 207.75 353.753 207.75 346.444H84ZM242.125 346.444C240.302 346.444 238.553 347.17 237.264 348.462C235.974 349.754 235.25 351.506 235.25 353.333C235.25 355.16 235.974 356.913 237.264 358.205C238.553 359.496 240.302 360.222 242.125 360.222C243.948 360.222 245.697 359.496 246.986 358.205C248.276 356.913 249 355.16 249 353.333C249 351.506 248.276 349.754 246.986 348.462C245.697 347.17 243.948 346.444 242.125 346.444ZM297.125 346.444C295.302 346.444 293.553 347.17 292.264 348.462C290.974 349.754 290.25 351.506 290.25 353.333C290.25 355.16 290.974 356.913 292.264 358.205C293.553 359.496 295.302 360.222 297.125 360.222C298.948 360.222 300.697 359.496 301.986 358.205C303.276 356.913 304 355.16 304 353.333C304 351.506 303.276 349.754 301.986 348.462C300.697 347.17 298.948 346.444 297.125 346.444ZM262.75 346.444V360.222H276.5V346.444H262.75ZM235.25 236.222V332.667H304V236.222H235.25Z" fill="#003294"/>
</svg>
