<svg width="205" height="205" viewBox="0 0 205 205" fill="none" xmlns="http://www.w3.org/2000/svg">
<path d="M147.231 108.877C143.384 108.883 139.589 109.762 136.132 111.45C135.05 109.654 134.214 107.72 133.647 105.701C133.321 104.119 133.246 102.495 133.424 100.889C133.798 99.1216 134.283 97.3798 134.876 95.6737C134.854 95.4506 134.609 94.3962 132.146 94.3612C129.683 94.3262 127.561 94.8294 127.334 95.4812C126.906 96.6719 126.562 97.8911 126.306 99.13C124.267 104.159 121.758 108.984 118.811 113.541C117.16 110.835 116.481 107.647 116.886 104.502C117.26 102.735 117.745 100.994 118.339 99.2875C118.317 99.0644 118.072 98.01 115.609 97.975C113.146 97.94 111.024 98.4431 110.796 99.095C110.569 99.7469 110.28 101.282 109.768 102.744C109.256 104.205 103.28 117.557 101.714 121.001C100.909 122.751 100.213 124.177 99.7232 125.139C99.7 125.202 99.6707 125.262 99.6357 125.319L98.9663 126.596V126.618C98.6295 127.222 98.2707 127.782 98.0913 127.782C97.7785 126.532 97.7935 125.222 98.1351 123.98C99.0101 119.347 101.154 112.146 101.132 111.896C101.132 111.761 101.534 110.509 99.7451 109.862C99.3301 109.664 98.864 109.6 98.4112 109.679C97.9583 109.757 97.5409 109.974 97.2163 110.299C97.0588 110.299 96.9495 110.68 96.9495 110.68C96.9495 110.68 98.8963 102.582 93.2351 102.582C91.0305 103.025 88.9368 103.905 87.0773 105.17C85.2177 106.434 83.6298 108.058 82.407 109.945C80.8845 110.772 77.6426 112.539 74.1732 114.442C72.8607 115.182 71.487 115.921 70.2138 116.63C70.1263 116.542 70.0345 116.429 69.947 116.341C63.0563 109 50.3907 103.82 50.9376 93.9981C51.1388 90.4194 52.3682 81.0219 75.2582 69.6075C94.097 60.3237 109.09 62.8962 111.684 68.6012C115.399 76.7475 103.652 91.8719 84.1876 94.0637C82.0342 94.5006 79.8102 94.4479 77.68 93.9095C75.5498 93.371 73.5679 92.3607 71.8807 90.9531C70.8526 89.8331 70.6951 89.7675 70.3145 89.9906C69.6888 90.3275 70.0913 91.3337 70.3145 91.9156C71.057 93.2594 72.0613 94.4407 73.2681 95.3898C74.475 96.3388 75.8598 97.0364 77.3407 97.4412C84.998 99.0959 92.9815 98.3048 100.165 95.1794C111.978 90.6162 121.165 77.9287 118.47 67.3019C115.762 56.5175 97.8638 52.9606 80.9238 58.9894C70.3134 62.5597 60.5093 68.1834 52.0707 75.54C42.7388 84.2681 41.2645 91.85 41.8682 95.0306C44.0557 106.309 59.5913 113.646 65.8082 119.093C65.5273 119.253 65.2444 119.409 64.9595 119.561C61.8488 121.106 49.9926 127.305 47.022 133.859C43.6663 141.296 47.5601 146.612 50.1326 147.329C54.0089 148.257 58.0781 147.952 61.7723 146.455C65.4665 144.959 68.6012 142.346 70.7388 138.982C72.5591 136.192 73.678 133.003 74.0002 129.687C74.3224 126.371 73.8384 123.026 72.5895 119.937C72.5684 119.888 72.5388 119.842 72.502 119.802L74.9388 118.371C76.4195 117.496 77.9191 116.653 79.4363 115.842C78.5255 118.469 77.9909 121.212 77.8482 123.989C77.539 128.245 78.8414 132.461 81.497 135.801C81.901 136.149 82.3701 136.413 82.877 136.578C83.384 136.744 83.9186 136.807 84.4501 136.764C87.0751 136.764 88.2782 134.576 89.5951 131.977C91.2051 128.801 92.6576 125.109 92.6576 125.109C92.6576 125.109 90.8463 135.088 95.7682 135.088C97.5576 135.088 99.3688 132.761 100.178 131.588V131.61L100.314 131.387L100.603 130.919V130.875C101.32 129.624 102.93 126.78 105.323 122.059C108.412 115.974 111.387 108.366 111.387 108.366C111.674 110.038 112.07 111.689 112.573 113.309C113.293 115.273 114.145 117.187 115.123 119.036C114.406 120.042 113.959 120.602 113.959 120.602L113.981 120.624C113.399 121.386 112.774 122.212 112.078 123.017C110.009 125.293 108.088 127.7 106.329 130.223C106.068 130.647 105.978 131.154 106.078 131.642C106.178 132.13 106.461 132.561 106.868 132.848C107.789 133.327 108.838 133.501 109.864 133.342C111.411 133.255 112.931 132.908 114.362 132.314C115.745 131.828 117.049 131.142 118.234 130.28C119.455 129.434 120.439 128.287 121.089 126.951C121.74 125.615 122.036 124.134 121.948 122.65C121.811 120.781 121.333 118.953 120.539 117.256C120.763 116.941 120.977 116.63 121.187 116.315C123.674 112.602 125.916 108.731 127.898 104.726C128.185 106.398 128.581 108.049 129.084 109.669C129.678 111.367 130.41 113.013 131.271 114.591C128.41 116.793 126.156 119.687 124.722 123C123.313 127.073 124.407 128.906 126.472 129.331C127.602 129.408 128.732 129.177 129.74 128.661C131.223 128.174 132.619 127.456 133.879 126.535C135.207 125.751 136.319 124.65 137.116 123.329C137.912 122.009 138.368 120.511 138.442 118.971C138.343 117.433 137.995 115.922 137.414 114.495C141.19 113.02 145.284 112.549 149.296 113.13C159.945 114.381 162.049 121.027 161.647 123.827C161.458 124.819 161.059 125.76 160.477 126.586C159.894 127.411 159.141 128.103 158.269 128.613C157.53 129.081 157.285 129.239 157.351 129.576C157.438 130.07 157.788 130.044 158.423 129.956C160.028 129.457 161.444 128.484 162.484 127.164C163.524 125.844 164.14 124.24 164.25 122.562C164.587 116 158.322 108.803 147.244 108.869L147.231 108.877ZM65.0688 136.562C61.5338 140.412 56.612 141.865 54.4857 140.636C52.202 139.323 53.0988 133.636 57.4388 129.558C60.0133 127.241 62.7959 125.165 65.7513 123.359C66.2676 123.044 67.0288 122.597 67.9388 122.046L68.1838 121.911L68.722 121.574C69.4973 124.172 69.5676 126.929 68.9257 129.563C68.2837 132.197 66.9526 134.613 65.0688 136.562V136.562ZM90.7982 119.062C89.5688 122.059 86.9963 129.737 85.4301 129.309C84.087 128.95 83.2426 123.131 85.1632 117.382C86.1329 114.615 87.5455 112.023 89.3457 109.709C91.2707 107.561 93.397 106.843 93.9088 107.718C93.4418 111.633 92.3934 115.457 90.7982 119.062V119.062ZM112.03 129.221C111.514 129.488 111.024 129.659 110.801 129.536C110.643 129.449 111.024 129.099 111.024 129.099C111.024 129.099 113.688 126.233 114.738 124.938C115.342 124.177 116.051 123.284 116.821 122.274V122.562C116.821 125.984 113.509 128.289 112.034 129.23L112.03 129.221ZM128.41 125.485C128.029 125.218 128.095 124.321 129.373 121.526C130.261 119.73 131.502 118.132 133.021 116.827C133.254 117.489 133.375 118.185 133.38 118.887C133.397 120.382 132.92 121.84 132.021 123.034C131.123 124.228 129.855 125.091 128.414 125.489L128.41 125.485Z" fill="#CD6799"/>
</svg>
