<svg width="499" height="499" viewBox="0 0 499 499" fill="none" xmlns="http://www.w3.org/2000/svg">
<path d="M342.344 246.118C329.88 232.976 313.263 223.984 295.952 220.526C288.336 218.451 280.719 217.068 273.103 216.376C292.49 193.551 289.028 158.968 266.179 139.602C243.33 120.235 208.709 123.694 189.322 146.518C169.935 169.343 173.397 203.926 196.246 223.293C200.4 226.751 204.555 229.518 208.709 230.901V246.118L197.631 235.743C187.937 226.059 172.012 226.059 161.626 235.743C151.932 245.426 151.24 260.643 160.933 270.326L192.784 307.676C194.169 317.359 197.631 326.35 202.478 334.65C205.94 340.875 210.787 347.1 215.633 351.942V365.083C215.633 369.233 218.403 372 222.557 372H316.725C320.187 372 323.649 368.542 323.649 365.083V347.1C336.804 331.192 343.728 311.134 343.728 291.076V250.959C344.421 248.193 343.728 246.809 342.344 246.118V246.118ZM190.014 181.101C190.014 158.277 208.709 140.293 231.559 140.985C254.408 140.985 272.411 159.66 271.718 182.485C271.718 194.935 266.179 206.001 256.485 213.61V179.027C256.132 173.032 253.496 167.4 249.119 163.285C244.742 159.17 238.954 156.883 232.943 156.893C220.48 156.202 209.402 166.577 209.402 179.027V214.993C197.631 208.076 190.707 194.935 190.014 181.101ZM330.573 290.384C331.265 308.367 325.033 325.659 313.263 339.492C311.878 340.875 310.493 342.259 310.493 344.334V358.858H230.174V349.175C230.174 347.1 228.789 345.025 227.404 343.642C222.557 339.492 218.403 334.65 214.941 328.425C210.787 321.509 208.017 313.209 206.632 304.909C206.632 303.526 205.94 302.142 205.247 300.759L172.012 261.334C169.935 259.259 168.55 256.493 168.55 253.034C168.55 250.268 169.935 246.809 172.012 244.734C176.859 240.584 183.783 240.584 188.63 244.734L208.709 264.793V285.542L221.865 278.626V179.027C222.557 174.185 226.712 170.035 232.251 170.727C237.098 170.727 241.945 174.185 241.945 179.027V258.568L255.793 261.334V229.518C256.485 228.826 257.178 228.826 257.87 228.134C262.717 228.134 267.564 228.826 272.411 229.518V264.793L283.489 266.868V230.901L291.798 232.976C295.26 233.668 298.722 235.051 302.184 236.434V271.017L313.263 273.092V241.276C319.494 244.043 325.033 248.193 329.88 253.034L330.573 290.384V290.384Z" fill="#82D2AC"/>
</svg>
