<svg width="28" height="28" viewBox="0 0 28 28" fill="none" xmlns="http://www.w3.org/2000/svg">
<path d="M15.1644 25.6666H12.8311V22.1666H15.1644V25.6666ZM21.4224 23.0743L18.9479 20.5998L20.5976 18.9501L23.0732 21.4258L21.4247 23.0743H21.4224V23.0743ZM6.57305 23.0743L4.92339 21.4246L7.39672 18.9489L9.04756 20.5986L6.57422 23.0731V23.0743H6.57305ZM13.9977 19.8414C12.4485 19.8408 10.9629 19.2248 9.86784 18.1288C8.77278 17.0329 8.15794 15.5468 8.15855 13.9976C8.15917 12.4483 8.77521 10.9628 9.87114 9.8677C10.9671 8.77265 12.4531 8.1578 14.0024 8.15842C14.7695 8.15872 15.5291 8.31012 16.2377 8.60397C16.9463 8.89781 17.5901 9.32835 18.1323 9.871C18.6745 10.4137 19.1045 11.0578 19.3978 11.7666C19.6911 12.4755 19.8419 13.2351 19.8416 14.0023C19.8412 14.7694 19.6899 15.5289 19.396 16.2375C19.1022 16.9461 18.6716 17.5899 18.129 18.1321C17.5863 18.6743 16.9422 19.1044 16.2333 19.3977C15.5245 19.6909 14.7648 19.8417 13.9977 19.8414V19.8414ZM13.9977 10.4918C13.537 10.4921 13.0809 10.5831 12.6554 10.7597C12.2299 10.9363 11.8433 11.1949 11.5178 11.5209C11.1922 11.8469 10.9341 12.2338 10.758 12.6596C10.582 13.0853 10.4916 13.5416 10.4919 14.0023C10.4922 14.463 10.5832 14.9191 10.7598 15.3446C10.9364 15.7701 11.1951 16.1567 11.5211 16.4822C11.847 16.8078 12.2339 17.0659 12.6597 17.2419C13.0854 17.418 13.5417 17.5084 14.0024 17.5081C14.9328 17.5075 15.8249 17.1373 16.4824 16.4789C17.1398 15.8206 17.5088 14.928 17.5082 13.9976C17.5076 13.0672 17.1374 12.1751 16.4791 11.5176C15.8207 10.8601 14.9281 10.4911 13.9977 10.4918V10.4918ZM25.6644 15.1666H22.1644V12.8333H25.6644V15.1666ZM5.83105 15.1666H2.33105V12.8333H5.83105V15.1666ZM20.5964 9.05092L18.9479 7.40009L21.4224 4.92442L23.0732 6.57525L20.5976 9.04975L20.5964 9.05092V9.05092ZM7.39789 9.05092L4.92455 6.57642L6.57539 4.92675L9.04872 7.40242L7.39905 9.04975V9.05092H7.39789ZM15.1644 5.83325H12.8311V2.33325H15.1644V5.83325Z" fill="white"/>
</svg>
